<?xml version="1.0" encoding="UTF-8"?><svg id="Layer_1" xmlns="http://www.w3.org/2000/svg" viewBox="0 0 397.85 394.25"><path d="m221.73,144.36h15.17v-15.23h14.81l-.08-.08v29.89h-14.55v15.17h-15.14v15.21h29.61v-15.04h15.4l-.08-.08v15.08h30.54v-15.08l-.08.08c5.1,0,10.2,0,15.3,0l-.08-.08v15.21h29.82v15.18h-14.51v30.43h-15.18v-14.94h-15.18v15.03h-30.64s.08.08.08.08v-30.31h-15.31v30.31l.08-.08h-29.99v14.76l.08-.08h-15.19v15.11h-15.18v-29.64h15.14v-15.38l-.08.08h15.08v-15.31h-15.08l.08.08v-30.31h-15.31v30.31l.08-.08c-5.1,0-10.2,0-15.31,0l.08.08v-15.08h-15.31v15.08l.08-.08h-14.76l.08.08v-15.17h-15.32c0-5.31,0-10.33,0-15.36,5.03,0,10.06,0,15.1,0v-29.69h-15.02v29.76h-45.54v-15.18h30.07v-14.72h-14.87v-15.08h75.28v14.93h-14.84v29.83h14.93v-14.92h45.84v-14.85l-.08.08Z"/><path d="m342.47,295.5c.03,15.07.06,30.14.09,45.21-4.85,0-9.69,0-14.55,0v15.01h14.48v-15.08c5.1.03,10.2.06,15.3.09l-.08-.08v15.31h15.31l-.08-.08v15.21h15.12v15.08h-60.16v-14.92h-15.17v-15.38h-15.4l.08.08v-29.76h-15.24v14.36h-30.35v-29.67h-14.88c0-10.39,0-20.49,0-30.59,4.85,0,9.69,0,14.55,0v-15.01h-14.48v15.08h-15.23v-30.55s-.08.08-.08.08h29.99v-14.76l-.08.08h15.31s-.08-.08-.08-.08v14.64h75.47v15.24h-14.31v30.59h14.52s-.08-.08-.08-.08Zm-30.06,15.14v-45.36h-45.37v45.36h45.37Z"/><path d="m115.46,113.74H9.89V7.94h105.58v105.8Zm-15.06-90.59H25.04v75.27h75.37V23.15Z"/><path d="m115.59,280.56v105.59H9.85v-105.59h105.75Zm-90.58,15.06v75.4h75.32v-75.4H25.01Z"/><path d="m282.62,113.62V7.96h105.45v105.66h-105.45Zm90.47-90.52h-75.46v75.37h75.46V23.1Z"/><path d="m160.87,68.11h-29.78v-14.57h14.85v-15.28h-14.9v-15.18h14.99V7.99h14.73v30.1h15.18v-14.91h45.73v30.08h29.83v-14.97h-14.32v-15.13h29.49v60.17c-9.87,0-19.8,0-29.73,0,0,0,.08.08.08.08v-15.31h-30.54l.08.08v-29.77h-15.31v29.77l.08-.08h-15.31l.08.08v-14.54h-15.31v14.54l.08-.08Z"/><path d="m115.65,204.73c10.18,0,20.36,0,30.54,0,0,0-.08-.08-.08-.08v15.31h14.76l-.08-.08v15.2h15.12v14.61h-14.89v15.35h14.98v15.15h30.35v15.25h-15c0,10.29,0,20.39,0,30.49,0,0,.08-.09.08-.09h-15.22v-30.23h-45.12v-45.7h14.86v-14.81h-45.53l.08.08v-15.31l-.08.08h15.31v-15.31l-.08.08Z"/><path d="m342.55,295.58v-15.21h30.28v-30.4h-15.01v-14.73h-15.09v-15.27h30.11v-15.17h-14.91v-15.2h30.08v105.9c-15.16,0-30.35,0-45.53,0,0,0,.08.08.08.08Z"/><path d="m70.02,189.41h-29.84v15.23h-15.37l.08.08v-60.33h-15.12v-15.09h75.25v14.96h-44.81v14.61h29.73v30.62l.08-.08Z"/><path d="m146.2,386.31h-15.08v-75.36h29.56v14.92h-14.36v14.72h14.38v15.27h15.21v15.17h-29.71v15.29Z"/><path d="m221.79,371.1h-15.18v15.12h-15.17v-30.17h14.92v-15.33h-14.93c0-5.15,0-10,0-14.86,0,0-.08.09-.07.08,10.03,0,20.05,0,30.36,0v14.66h15.06v15.22h-15.06v15.37l.08-.08Z"/><path d="m221.81,144.28h-30.31v-45.61h15.07l-.08-.08v30.39h15.25c0,5.31,0,10.35,0,15.38,0,0,.08-.08.08-.08Z"/><path d="m24.81,204.64v60.22h-15.02v-60.14c5.03,0,10.06,0,15.09,0,0,0-.08-.08-.08-.08Z"/><path d="m85.26,235.11h-15.17v14.68h-14.82l.08.08v-14.63h-15.11v-15.27h45.02s-.08-.08-.08-.08v15.31l.08-.08Z"/><path d="m206.56,98.67v-15.32s-.07.08-.07.08h30.54s-.08-.08-.08-.08v30.3h-15.1v-15.05c-5.31,0-10.34,0-15.37,0,0,0,.08.08.08.08Z"/><path d="m176.03,68.11v45.54h-15.16c0-15.18,0-30.36,0-45.54,0,0-.08.08-.08.08h15.31l-.08-.08Z"/><path d="m100.42,235.11v14.67h15.12v15.08h-30.27c0-9.89,0-19.82,0-29.75,0,0-.08.08-.08.08h15.31l-.08-.08Z"/><path d="m357.79,340.73v-14.54h30.24v29.69h-15.09l.08.08v-15.31h-15.31l.08.08Z"/><path d="m251.71,129.13v-30.31h15.15v30.29l.08-.08c-5.1,0-10.2.01-15.31.02,0,0,.08.08.08.08Z"/><path d="m131.11,83.51h14.89v30.11h-14.89v-30.11Z"/><path d="m266.95,174.27v-15.08h30.39c0,5.02,0,10.05,0,15.08l.08-.08h-30.54l.08.08Z"/><path d="m297.34,355.86v15.09h-30.25v-15.01c10.13,0,20.23,0,30.32,0,0,0-.08-.08-.08-.08Z"/><path d="m221.71,371.18h29.76v15.01h-29.68c0-5.03,0-10.06,0-15.09,0,0-.08.08-.08.08Z"/><path d="m206.57,219.88h-15.24v-15.24s-.08.08-.08.08h15.31l-.08-.08v15.31l.08-.08Z"/><path d="m69.94,189.49h15.23v15.23l.08-.08h-15.23c0-5.16,0-10.2,0-15.23,0,0-.08.08-.08.08Z"/><path d="m357.56,174.1h-14.89v-14.89h14.89v14.89Z"/><path d="m176.03,204.65v15.24h-15.24s.08.08.08.08v-15.31l-.08.08h15.31l-.08-.08Z"/><path d="m55.27,249.79v15.08h-15.02v-15c5.04,0,10.07,0,15.09,0,0,0-.08-.08-.08-.08Z"/><path d="m312.63,174.28v-15.08h15.01v15c-5.04,0-10.07,0-15.09,0,0,0,.08.08.08.08Z"/><path d="m373.01,144.26h-15.06v-15h14.98v15.08l.08-.08Z"/><path d="m297.51,144.15v-14.86h14.91v14.86h-14.91Z"/><path d="m266.86,129.11h15.08v15.02h-15c0-5.04,0-10.07,0-15.09,0,0-.08.08-.08.08Z"/><path d="m206.57,83.35h-15.24c0-5.16,0-10.2,0-15.24,0,0-.08.08-.08.08h15.31l-.08-.08v15.31l.08-.08Z"/><path d="m85.17,204.72c5.11,0,10.21,0,15.32.01l-.08-.08v15.31l.08-.08h-15.31s.08.08.08.08c0-5.11,0-10.21,0-15.32,0,0-.08.08-.08.08Z"/><path d="m100.49,204.73v-15.08h15.16c0,5.02,0,10.05,0,15.08,0,0,.08-.08.08-.08h-15.31l.08.08Z"/><path d="m372.93,144.34h15.08v14.47h-15c0-4.86,0-9.71,0-14.55,0,0-.08.08-.08.08Z"/><path d="m328.01,129.14h14.28v14.97h-14.28v-14.97Z"/><path d="m297.18,295.4h-14.91v-14.89h14.91v14.89Z"/><path d="m40.06,83.26v-44.91h45.06v44.91h-45.06Z"/><path d="m40.12,310.8h44.94v45.08h-44.94v-45.08Z"/><path d="m357.73,38.31v45h-45.02v-45h45.02Z"/></svg>