<?xml version="1.0" encoding="UTF-8"?><svg id="Layer_2" xmlns="http://www.w3.org/2000/svg" viewBox="0 0 347.31 347.24"><g id="Layer_1-2"><g id="tlNjxG.tif"><path d="m305.53,333.37h-69.38v13.88h-13.93v-13.88h-13.64l.07.08v-14.05l-.07.07h27.32v-14.05h-27.32l.07.07v-41.32h-42.03v13.85l.07-.07h-14.04v27.54l.07-.07h-14.05v14.05l.07-.07h-13.34v14.05h13.34l-.08-.07v13.85h-27.29v-69.12h27.37v-14.14l-.08.07h14.05v-28.03l-.07.07h14.13v13.82h27.88v-27.91h27.46v-27.42l-.07.08c14,0,28.01,0,42.01,0l-.07-.07v13.96h-27.79v13.42h69.11v14.01h-13.12v28.1h13.32l-.07-.07v27.88h-13.28v27.61h13.36l-.07-.08c0,4.68,0,9.37,0,14.05l.07-.08Zm-27.68-55.49v-41.64h-41.64v41.64h41.64Zm.04,41.43v-27.19h-13.67v27.19h13.67Zm-69.16-69.43h13.21v-13.66h-13.21v13.66Z"/><path d="m236.13,152.62v27.9h-14.06v14.12s.07-.08.07-.08h-13.64v13.88h-27.68v-13.96h13.68v-13.92h-13.89c0-4.83,0-9.39,0-13.95,4.61,0,9.23,0,13.86,0v-13.77h-13.79v13.84c-9.34,0-18.68,0-28.03,0v-14.12h-13.83v-13.9h13.93v-13.5c4.82,0,9.38,0,13.94,0,0,4.45,0,8.91,0,13.36h41.73v-13.29h-41.8c0-4.68,0-9.36,0-14.04,4.62,0,9.25,0,14.05,0v-13.98l-.07.07h14.05l-.08-.07v13.85h27.48v-27.67h13.9v27.79h13.99v27.46c4.78,0,9.39,0,14.01,0,0,0-.08-.07-.08-.07v14.14c-9.34,0-18.6,0-27.85,0,0-9.11,0-18.22,0-27.33h-13.91c0,9.22,0,18.27,0,27.32-4.45,0-8.9,0-13.36,0v13.77h13.29v-13.84h14.05Z"/><path d="m111.28,236h-55.9v-13.86h-27.33v-13.52h13.66v-13.93h-13.69v-14.02h13.64v-14.02H.02v-27.81h13.75v13.6h13.92v-27.16H.1v-13.91h69.05v13.68h-13.77v13.52h-13.35v14.11h41.29l-.07-.08v14.05h14.05l-.07-.07c.02,4.68.05,9.37.07,14.05-4.62,0-9.25,0-13.99,0v13.99h-27.82v13.91c9.39,0,18.61,0,27.82,0,0,4.45,0,8.9,0,13.35h13.92v-13.35h13.98v27.54l.07-.08Zm-55.86-55.56h13.68v-13.67h-13.68v13.67Z"/><path d="m97.07,97.12H.14V0h96.93v97.12Zm-13.82-83.16H14.05v69.11h69.2V13.96Z"/><path d="m.14,250.12h96.93v97.12H.14v-97.12Zm83.02,83.25v-69.2H14.05v69.2h69.12Z"/><path d="m347.31.07v97.01h-96.77V.07h96.77Zm-13.77,13.85h-69.27v69.2h69.27V13.91Z"/><path d="m305.52,264.05v-13.97h27.8v-27.91h-13.8v-13.52h-13.84v-14.02h13.74v-27.82h27.87v27.65h-13.66v14.02h13.61v55.49c-13.9,0-27.84,0-41.79,0,0,0,.07.07.07.07Z"/><path d="m125.27,13.86V.02h41.3v13.62h27.98V0h41.4v13.72h-27.38v28.1l.07-.07h-14.04s.07.08.07.08v-13.86h-28.09v13.79h-13.93l.08.07V13.79h-27.53l.07.07Z"/><path d="m97.31,138.7v-13.46h-13.88v-13.92h41.85v-14.13l-.08.07c4.52-.02,9.04-.05,13.56-.07v28.09h-13.48c0,13.97,0,27.68,0,41.38-9.35-.02-18.69-.05-28.04-.07l.07.07v-14.05l-.07.07h13.84v-14.05h-13.84l.08.07Z"/><path d="m138.75,263.97h-27.47c0-9.4,0-18.69,0-27.97,0,0-.07.08-.07.08h13.98v-41.52h13.6v27.55h13.92l-.07-.07c0,4.68,0,9.36,0,14.04l.07-.07h-14.05v28.03l.08-.07Z"/><path d="m264.08,194.64v-13.97h-13.87v-13.85h55.13v13.73h-13.25v27.87h-13.93v-13.86c-4.9,0-9.52,0-14.15,0,0,0,.07.07.07.07Z"/><path d="m166.71,333.37c-9.35,0-18.69,0-28.04,0l.08.07v-14.05l-.07.07h14.05v-14.05l-.07.07h56l-.07-.07v14.05l.07-.07h-42.01v14.05l.07-.08Z"/><path d="m125.27,97.19h-13.84v-27.84h13.85v-14.1l-.07.07h13.43v-13.49c4.87,0,9.49,0,14.1,0,0,0-.08-.07-.08-.07v27.53l.07-.07h-13.98v14.05h-13.55v13.98l.08-.07Z"/><path d="m180.62,55.24v13.93h13.98v14.1l.08-.07h-14.05v14.05l.07-.07c-4.68.02-9.37.05-14.05.07,0-4.62,0-9.25,0-13.99h-13.99c.02-4.68.05-9.37.07-14.05l-.07.07h14.11v-13.98h13.93l-.08-.07Z"/><path d="m333.42,319.39v13.96h13.88v13.84h-41.77v-13.83l-.07.08h14.05v-14.05l-.07.07c4.68,0,9.37,0,14.05,0l-.08-.07Z"/><path d="m0,235.85v-55.09h13.67v55.09H0Z"/><path d="m291.97,125.16v27.31h-13.91v-13.92c-4.89,0-9.52,0-14.15,0,0,0,.08.07.08.07,0-9.05,0-18.09,0-27.28h13.92v13.89h14.13l-.07-.07Z"/><path d="m208.59,333.37v13.85h-41.88c0-4.61,0-9.23,0-13.85l-.07.08h42.01l-.07-.08Z"/><path d="m319.51,305.48v-13.34h27.76v27.25h-13.85l.08.07v-14.05h-14.05l.08.07Z"/><path d="m208.57,41.83c4.52,0,9.04.01,13.56.02l-.07-.07v27.31h-13.41c0-9.11,0-18.22,0-27.33,0,0-.07.07-.07.07Z"/><path d="m194.6,83.28h13.84v13.91c-4.61,0-9.23,0-13.84,0,0,0,.08.07.08.07v-14.05l-.08.07Z"/><path d="m333.48,125.14h-13.83v-13.77h13.75v13.84l.07-.07Z"/><path d="m125.2,13.79v13.84h-13.78v-13.77c4.63,0,9.24,0,13.86,0,0,0-.07-.07-.07-.07Z"/><path d="m222.13,41.84v-13.84h13.78v13.77c-4.63,0-9.24,0-13.86,0,0,0,.07.07.07.07Z"/><path d="m83.32,152.69v-13.99c4.74,0,9.36,0,13.99,0,0,0-.08-.07-.08-.07v14.05l.07-.07h-14.05l.07.08Z"/><path d="m305.53,319.47v-13.99h13.99l-.08-.07v14.05l.07-.07h-14.05l.07.08Z"/><path d="m319.36,138.84v13.67h-13.67v-13.67h13.67Z"/><path d="m194.6,41.76v13.49c-4.74,0-9.36,0-13.99,0,0,0,.08.07.08.07v-13.48h13.98l-.07-.08Z"/><path d="m125.28,55.25h-13.84v-13.28h13.77c0,4.46,0,8.91,0,13.36,0,0,.07-.07.07-.07Z"/><path d="m292.04,125.23v-13.84h13.28v13.77c-4.46,0-8.91,0-13.36,0,0,0,.07.07.07.07Z"/><path d="m333.41,125.21h13.84v13.28h-13.77c0-4.46,0-8.91,0-13.36,0,0-.07.07-.07.07Z"/><path d="m97.23,194.63c0-4.68,0-9.37,0-14.05h28.03v14.05h-28.03Z"/><path d="m125.2,180.65v-14.05h27.53c-.03,4.68-.05,9.36-.08,14.05l.07-.07c-9.18.03-18.35.05-27.53.08Z"/><path d="m152.65,180.64h13.84v13.78h-13.77c0-4.63,0-9.24,0-13.86,0,0-.07.07-.07.07Z"/><path d="m152.72,222.1v-13.34h13.78v13.27c-4.63,0-9.24,0-13.86,0,0,0,.07.07.07.07Z"/><path d="m166.63,278.01h27.82v13.78h-27.74c0-4.62,0-9.24,0-13.85,0,0-.07.07-.07.07Z"/><path d="m250.25,250.13h13.66v13.67h-13.66v-13.67Z"/><path d="m152.66,97.19c4.68,0,9.37,0,14.05,0v14.05h-14.05v-14.05Z"/><path d="m152.73,83.21v14.05c-4.68,0-9.37,0-14.05,0v-14.05h14.05Z"/><path d="m97.3,208.61h-14.05c0-4.68,0-9.37,0-14.05h14.05v14.05Z"/><path d="m27.85,69.15V27.92h41.36v41.23H27.85Z"/><path d="m69.27,278.08v41.25H27.89v-41.25h41.38Z"/><path d="m278.06,69.18V27.89h41.32v41.3h-41.32Z"/></g></g></svg>